<svg version="1.1" id="Layer_1" xmlns="http://www.w3.org/2000/svg" xmlns:xlink="http://www.w3.org/1999/xlink" x="0px" y="0px"
	 width="100%" viewBox="0 0 6000 6000" enable-background="new 0 0 6000 6000" xml:space="preserve">
<path fill="none" opacity="1.000000" stroke="none"
	d="
M3312.000000,6004.000000
	C2208.000244,6004.000000 1106.000366,6004.000000 4.000443,6004.000000
	C4.000296,4004.000488 4.000296,2004.001099 4.000148,4.001249
	C2003.999023,4.000833 4003.998047,4.000833 6003.998047,4.000416
	C6003.998535,2003.998657 6003.998535,4003.997314 6003.999023,6003.998047
	C5107.333496,6004.000000 4210.666504,6004.000000 3312.000000,6004.000000
M2423.545166,4593.728516
	C2435.177490,4578.296875 2446.721191,4562.797363 2458.455811,4547.444336
	C2592.093994,4372.596191 2742.835449,4213.939453 2910.051025,4070.924805
	C3041.003662,3958.925049 3180.148926,3858.229248 3327.806396,3769.364502
	C3387.205078,3733.616455 3447.628418,3699.685547 3509.362305,3668.106934
	C3519.434082,3662.954834 3529.633301,3657.819336 3538.937988,3651.454346
	C3553.689453,3641.364258 3558.298584,3626.310059 3555.355469,3609.263184
	C3552.484131,3592.633057 3541.838135,3582.082764 3525.993408,3577.108887
	C3519.038574,3574.925537 3511.704590,3573.860596 3504.484863,3572.625488
	C3307.476562,3538.921387 3115.470215,3486.791504 2928.600830,3415.898193
	C2731.030762,3340.945557 2543.177246,3246.536621 2364.844482,3133.197754
	C2338.411377,3116.398438 2312.144043,3099.330811 2286.018066,3082.057861
	C2268.685303,3070.598389 2251.322998,3069.854736 2233.309082,3080.038330
	C2226.348877,3083.973389 2219.489502,3088.207520 2212.185303,3091.389404
	C2193.881348,3099.363770 2175.722656,3107.926758 2156.838379,3114.264404
	C2103.957764,3132.010010 2049.590576,3133.179688 1994.747314,3126.419189
	C1988.798828,3125.686035 1982.888306,3124.576660 1976.924072,3124.052490
	C1956.210938,3122.231445 1940.538452,3129.936523 1930.949829,3148.850830
	C1929.443848,3151.821777 1927.762451,3154.704590 1926.272461,3157.683350
	C1911.964233,3186.288086 1897.402832,3214.770264 1883.440796,3243.543213
	C1845.011353,3322.739014 1810.512329,3403.643799 1779.579102,3486.045166
	C1729.131226,3620.430420 1689.432861,3757.982178 1659.268188,3898.293945
	C1638.381592,3995.448486 1622.889526,4093.487305 1611.831421,4192.229492
	C1609.235962,4215.404297 1607.416260,4238.666016 1604.834839,4261.842773
	C1602.625244,4281.681641 1608.199951,4297.796875 1622.520508,4312.472656
	C1674.211792,4365.447266 1726.999390,4417.184082 1783.616943,4464.944824
	C1926.288818,4585.298828 2083.786377,4681.552246 2255.023926,4755.536133
	C2259.301270,4757.384277 2263.629639,4759.188477 2268.073242,4760.563965
	C2288.013184,4766.738770 2305.143799,4761.613281 2317.958984,4745.336426
	C2322.894287,4739.067871 2327.023926,4732.169434 2331.591064,4725.606934
	C2361.660889,4682.400391 2391.750000,4639.207520 2423.545166,4593.728516
M4898.873535,3233.131104
	C4902.925293,3186.661133 4908.648926,3140.263672 4910.670410,3093.705566
	C4914.488281,3005.760986 4912.964355,2917.852783 4904.634277,2830.065186
	C4893.708496,2714.926270 4872.653320,2601.742432 4841.438477,2490.468262
	C4804.761230,2359.723145 4754.354492,2234.390137 4690.802246,2114.378418
	C4631.348145,2002.105957 4561.551758,1896.709717 4480.891113,1798.496216
	C4443.208984,1752.613647 4403.490723,1708.575684 4361.916992,1666.248779
	C4339.046875,1642.964355 4314.766113,1621.069214 4291.254395,1598.409790
	C4279.980469,1587.544312 4266.720703,1582.747314 4251.190918,1584.178833
	C4240.576172,1585.157104 4229.968262,1586.216064 4219.364258,1587.309326
	C4111.166016,1598.465454 4004.104736,1616.592773 3897.993164,1640.326294
	C3732.381104,1677.368286 3571.176025,1728.415649 3414.411865,1793.440430
	C3406.411865,1796.758789 3398.238037,1799.823975 3390.654785,1803.944946
	C3376.125244,1811.840942 3367.765625,1824.021729 3367.692871,1841.037354
	C3367.667480,1847.031494 3367.885498,1853.031616 3368.163330,1859.021118
	C3370.475342,1908.884277 3364.177979,1957.475952 3346.599365,2004.371460
	C3342.858154,2014.352295 3338.902588,2024.269043 3334.608643,2034.022949
	C3326.273193,2052.958496 3328.300781,2070.327393 3341.585205,2086.311768
	C3346.270996,2091.949951 3350.890625,2097.645752 3355.439453,2103.395264
	C3391.827148,2149.382812 3429.178955,2194.647949 3464.377686,2241.529053
	C3574.302734,2387.936035 3670.115234,2543.210938 3752.380615,2706.759277
	C3819.269531,2839.738037 3876.480957,2976.810547 3923.971924,3117.915527
	C3926.945801,3126.750244 3929.868652,3135.679443 3933.829590,3144.086914
	C3940.204346,3157.617676 3951.082764,3165.900879 3966.079102,3168.121826
	C3972.003174,3168.999512 3978.010742,3169.312500 3983.978027,3169.903320
	C3996.576416,3171.149902 4009.355713,3171.453613 4021.742920,3173.812988
	C4140.868652,3196.500488 4228.875977,3260.879150 4283.213379,3370.017822
	C4286.182617,3375.982178 4288.858887,3382.123047 4292.239258,3387.846680
	C4301.150391,3402.936523 4314.832520,3409.994873 4332.115234,3410.176270
	C4336.750977,3410.224854 4341.398438,3409.368408 4346.037109,3408.892334
	C4446.244629,3398.609619 4545.572266,3382.690674 4644.179199,3362.201904
	C4714.692871,3347.550537 4784.346680,3329.520996 4853.642090,3309.904297
	C4878.782227,3302.787598 4892.316895,3288.038086 4894.879395,3262.402344
	C4895.740723,3253.787842 4897.222656,3245.235352 4898.873535,3233.131104
M2404.210205,2755.096680
	C2406.712646,2795.366699 2402.549805,2834.939209 2391.916992,2873.857422
	C2390.515625,2878.986816 2389.296875,2884.217773 2388.616211,2889.482178
	C2386.690186,2904.375732 2391.110596,2917.220459 2402.329590,2927.319092
	C2406.761963,2931.309082 2411.690674,2934.813721 2416.677734,2938.108887
	C2433.355469,2949.127686 2450.066406,2960.101807 2466.933838,2970.827393
	C2630.533447,3074.854004 2802.786133,3161.763916 2983.697510,3231.440918
	C3178.464600,3306.454346 3379.315918,3358.635742 3585.408203,3390.973145
	C3592.631592,3392.106201 3599.965820,3392.978516 3607.263428,3393.105713
	C3623.160889,3393.383057 3635.585938,3386.538818 3644.143799,3373.144531
	C3647.362793,3368.105957 3649.959961,3362.664795 3652.761963,3357.365234
	C3669.703857,3325.321289 3690.461670,3296.120850 3716.891113,3271.132568
	C3724.153320,3264.266357 3731.352295,3257.333496 3738.618408,3250.471191
	C3751.440430,3238.362549 3755.337891,3223.624756 3751.284668,3206.708496
	C3749.890381,3200.889404 3747.918213,3195.200439 3746.048340,3189.505127
	C3711.297852,3083.648438 3670.080811,2980.322266 3623.264404,2879.268066
	C3558.720459,2739.948975 3483.926758,2606.326904 3398.045654,2478.994141
	C3339.876465,2392.749512 3277.656982,2309.544922 3210.817139,2229.786377
	C3193.376953,2208.975342 3177.830566,2197.068115 3142.632324,2211.334473
	C3109.017090,2224.959229 3073.708496,2231.582520 3037.479492,2233.492432
	C2958.416260,2237.660156 2885.514648,2218.969971 2819.316162,2175.129639
	C2815.983643,2172.922852 2812.694336,2170.634277 2809.247070,2168.620361
	C2792.657227,2158.928223 2776.244873,2159.515869 2760.230225,2169.942627
	C2755.213379,2173.208984 2750.471191,2176.909668 2745.701660,2180.540527
	C2685.753174,2226.176514 2628.124023,2274.582764 2572.189453,2325.054688
	C2498.422607,2391.617188 2427.885742,2461.411621 2360.768555,2534.667969
	C2358.969971,2536.631104 2357.194580,2538.629395 2355.566650,2540.733887
	C2344.874756,2554.557861 2342.635254,2569.699707 2349.160889,2585.883545
	C2351.392822,2591.418213 2354.333252,2596.707764 2357.338623,2601.883545
	C2384.224854,2648.183350 2399.612061,2698.053711 2404.210205,2755.096680
M1699.650269,2750.905762
	C1701.628296,2721.496826 1707.097900,2692.780273 1716.750977,2664.899170
	C1720.021362,2655.453613 1723.578613,2646.101074 1726.609741,2636.580322
	C1731.839600,2620.153320 1729.516724,2604.955322 1718.198975,2591.583008
	C1712.603882,2584.972168 1706.857910,2578.486328 1701.084839,2572.029297
	C1627.730469,2489.985352 1558.493042,2404.580078 1494.527100,2315.046143
	C1458.125977,2264.095215 1423.832886,2211.639160 1388.547852,2159.889648
	C1384.424927,2153.843018 1380.585693,2147.469727 1375.661133,2142.126709
	C1357.296021,2122.202637 1328.067749,2123.146973 1310.949707,2144.219482
	C1306.805664,2149.321045 1303.629150,2155.345947 1300.723633,2161.295654
	C1239.101318,2287.485107 1190.356567,2418.370605 1157.482178,2555.023193
	C1131.076782,2664.785645 1114.507080,2775.981689 1107.436279,2888.687012
	C1104.510620,2935.322266 1105.358276,2981.933594 1104.874023,3028.564941
	C1103.958130,3116.769043 1112.145874,3204.302246 1125.281982,3291.366699
	C1147.545410,3438.927734 1186.429810,3582.016602 1242.382935,3720.456543
	C1276.663452,3805.273682 1317.064575,3887.027832 1363.188843,3965.983643
	C1367.202271,3972.854004 1371.379028,3979.885254 1376.748047,3985.663574
	C1399.889404,4010.568359 1438.259521,4001.739502 1448.505737,3969.349854
	C1450.306030,3963.658691 1451.324097,3957.696533 1452.407715,3951.805176
	C1464.706177,3884.937988 1478.993896,3818.518799 1495.608032,3752.572998
	C1529.851074,3616.653076 1573.040039,3483.666748 1625.339600,3353.644043
	C1666.159058,3252.163086 1712.380615,3153.176514 1763.504639,3056.476562
	C1767.240723,3049.409668 1771.089355,3042.364746 1774.231445,3035.029297
	C1780.423218,3020.573242 1779.281372,3006.390381 1771.191040,2992.894043
	C1768.797607,2988.901611 1765.942505,2985.187012 1763.321777,2981.329590
	C1740.681030,2948.004395 1723.500610,2912.172607 1712.176270,2873.402100
	C1700.818604,2834.517090 1697.680054,2794.918945 1699.650269,2750.905762
M3892.271484,3993.174561
	C3890.678223,3964.559570 3889.117676,3935.942383 3887.458740,3907.331299
	C3887.189453,3902.681152 3886.791992,3897.998291 3885.927490,3893.430176
	C3882.993408,3877.929932 3874.404541,3866.695557 3859.864014,3860.324707
	C3854.987061,3858.187744 3849.931885,3856.443115 3844.908691,3854.659180
	C3810.688965,3842.507324 3779.353027,3825.101318 3750.560303,3803.033203
	C3746.858398,3800.196045 3743.134277,3797.379150 3739.304688,3794.719727
	C3726.211914,3785.626709 3712.062012,3784.533691 3697.393799,3789.927734
	C3690.529297,3792.452637 3683.854248,3795.586426 3677.311768,3798.878174
	C3640.394287,3817.452393 3603.230469,3835.568115 3566.721436,3854.916748
	C3326.053223,3982.462891 3107.714355,4140.971191 2910.875488,4329.147949
	C2839.505615,4397.377441 2772.027588,4469.305664 2707.828369,4544.312988
	C2644.485107,4618.319824 2585.324219,4695.553711 2529.707275,4775.512207
	C2525.908691,4780.973145 2521.935059,4786.450195 2519.107178,4792.423828
	C2507.785645,4816.339355 2518.087646,4842.067383 2542.667480,4851.554199
	C2548.232178,4853.701660 2554.159912,4854.969727 2559.985596,4856.371094
	C2681.527588,4885.611328 2804.630615,4903.345215 2929.640137,4908.388184
	C2994.343994,4910.998047 3058.971924,4910.537598 3123.514893,4906.733398
	C3199.406250,4902.260742 3274.850830,4893.326172 3349.712646,4879.616699
	C3503.914062,4851.377441 3652.524658,4805.390625 3795.237549,4740.452637
	C3801.303223,4737.692383 3807.379639,4734.933594 3813.300293,4731.881836
	C3824.569092,4726.072754 3831.847656,4716.881348 3835.262207,4704.707520
	C3836.520752,4700.219727 3837.488281,4695.642578 3838.406982,4691.069336
	C3852.592285,4620.459961 3864.236328,4549.435547 3872.743896,4477.915527
	C3879.752197,4419.001465 3885.943359,4360.007324 3888.773682,4300.709473
	C3890.807129,4258.104492 3894.053223,4215.523438 3894.768555,4172.898438
	C3895.752930,4114.261230 3896.061768,4055.573975 3892.271484,3993.174561
M3255.500488,1622.886475
	C3271.747559,1636.056274 3289.323242,1637.075928 3307.970215,1628.693237
	C3311.615479,1627.054565 3315.375732,1625.674072 3319.067139,1624.136108
	C3517.145020,1541.601807 3721.046875,1478.023804 3931.549072,1435.913696
	C3937.423828,1434.738403 3943.369385,1433.594482 3949.017578,1431.663208
	C3980.927490,1420.751709 3988.595703,1381.507935 3963.101562,1359.334473
	C3958.624023,1355.440063 3953.342041,1352.373657 3948.157959,1349.402588
	C3878.086914,1309.242310 3805.487061,1274.244141 3730.822510,1243.524292
	C3603.985596,1191.338745 3472.963623,1153.590454 3337.892090,1129.784912
	C3262.979980,1116.582153 3187.585449,1107.456421 3111.613525,1103.981201
	C3073.025146,1102.216064 3034.340332,1102.487549 2995.697021,1102.011230
	C2910.879395,1100.965698 2826.596436,1107.627930 2742.648682,1119.442749
	C2608.164551,1138.370239 2477.259766,1171.456909 2349.779297,1218.191528
	C2344.162354,1220.250732 2338.581787,1222.543457 2333.274170,1225.288208
	C2306.636719,1239.063110 2304.933350,1278.097534 2326.675781,1294.613525
	C2332.461914,1299.008911 2338.917969,1302.621216 2345.362061,1306.035400
	C2385.404785,1327.251343 2425.916260,1347.613159 2465.556152,1369.552490
	C2572.366699,1428.668945 2675.544678,1493.604980 2774.638672,1564.966553
	C2780.041260,1568.857422 2785.504395,1572.733276 2791.272705,1576.033813
	C2804.859863,1583.807983 2819.092529,1584.859985 2833.489258,1578.462891
	C2840.174072,1575.492676 2846.510498,1571.744629 2853.037354,1568.413208
	C2924.274170,1532.051636 2999.178223,1519.988037 3078.100098,1534.397461
	C3144.758789,1546.567871 3202.760742,1576.196777 3255.500488,1622.886475
M1530.253662,1804.181763
	C1514.653809,1824.134644 1499.015625,1844.057983 1483.482178,1864.062256
	C1479.806641,1868.795654 1476.270020,1873.665771 1473.035767,1878.707886
	C1463.604248,1893.411011 1462.945679,1908.704468 1470.652222,1924.323486
	C1472.713989,1928.502075 1475.093628,1932.528442 1477.420044,1936.571411
	C1580.837280,2116.297363 1701.605591,2283.527832 1839.142456,2438.670166
	C1843.549316,2443.640869 1848.157349,2448.572021 1853.328247,2452.698975
	C1865.026123,2462.034912 1878.381470,2464.746582 1892.850220,2460.510742
	C1897.306885,2459.206055 1901.637695,2457.382080 1905.895508,2455.500488
	C1982.429321,2421.678711 2061.226562,2414.901855 2142.356445,2435.543213
	C2148.165283,2437.021240 2154.003906,2438.518311 2159.917969,2439.419189
	C2175.374756,2441.773438 2188.999268,2438.160889 2199.951904,2426.368896
	C2206.755127,2419.044434 2213.890137,2412.023682 2220.583740,2404.602539
	C2264.357666,2356.071777 2309.985596,2309.303711 2357.050781,2264.010742
	C2447.408936,2177.054199 2541.856201,2094.765625 2641.709229,2018.790894
	C2645.952148,2015.562622 2650.142334,2012.260864 2654.280273,2008.899170
	C2667.847168,1997.877563 2673.342285,1983.573975 2671.119873,1966.349976
	C2670.011719,1957.760864 2668.454834,1949.229736 2667.104492,1940.671753
	C2658.561035,1886.525513 2661.058105,1833.060913 2676.962402,1780.415771
	C2678.310303,1775.953613 2679.715576,1771.488159 2680.692383,1766.937988
	C2684.540039,1749.014771 2679.551025,1733.944946 2665.408447,1722.214111
	C2659.775635,1717.541748 2653.767578,1713.302368 2647.778076,1709.081787
	C2538.649902,1632.180420 2424.990723,1562.686279 2306.654053,1500.882935
	C2225.651367,1458.577637 2142.635498,1420.638672 2058.097656,1385.916016
	C2036.420532,1377.012329 2016.873901,1376.813721 1997.807739,1391.071289
	C1994.615601,1393.458374 1991.052612,1395.348389 1987.670288,1397.482666
	C1869.918823,1471.785522 1762.204834,1558.733276 1663.508667,1656.765137
	C1617.162964,1702.798706 1573.110229,1751.067627 1530.253662,1804.181763
M4120.420898,3838.781738
	C4117.993164,3839.880371 4115.549316,3840.946533 4113.139160,3842.082520
	C4084.121338,3855.759277 4077.418457,3866.853516 4079.198486,3898.231201
	C4079.311768,3900.227051 4079.479492,3902.219971 4079.570801,3904.216797
	C4081.394775,3944.145508 4083.476318,3984.064941 4084.932861,4024.007080
	C4085.855225,4049.302490 4086.423340,4074.638672 4086.133789,4099.944824
	C4085.493896,4155.902344 4085.361084,4211.902344 4082.904541,4267.792480
	C4079.715820,4340.344727 4073.558594,4412.727051 4065.256104,4484.906250
	C4064.119141,4494.793945 4063.870117,4504.868652 4064.221680,4514.820801
	C4064.645996,4526.830566 4070.454102,4536.570801 4080.124023,4543.564453
	C4094.461182,4553.933105 4109.978516,4554.525391 4125.412109,4546.595703
	C4133.046387,4542.673340 4139.967285,4537.248535 4146.892090,4532.075195
	C4227.668945,4471.732422 4302.822266,4405.055176 4373.086426,4332.722168
	C4441.952148,4261.829102 4504.966797,4186.168945 4562.274902,4105.682129
	C4614.157715,4032.814941 4660.405273,3956.520996 4701.706543,3877.217285
	C4748.592285,3787.190186 4787.490234,3693.777344 4819.463867,3597.466797
	C4821.555176,3591.167236 4823.506348,3584.689209 4824.385742,3578.141357
	C4828.377930,3548.427490 4806.016602,3525.946533 4776.293945,3529.611572
	C4770.359375,3530.343262 4764.482422,3531.708252 4758.648926,3533.079834
	C4634.614258,3562.246582 4509.277832,3583.807617 4382.599609,3597.561279
	C4367.367676,3599.214844 4352.146484,3600.983643 4336.940430,3602.859863
	C4319.438965,3605.019287 4307.775879,3614.962402 4300.803711,3630.757568
	C4298.654785,3635.625977 4297.038574,3640.728760 4295.166016,3645.719238
	C4272.653320,3705.722900 4236.926270,3756.232666 4186.875977,3796.454346
	C4167.059570,3812.378906 4145.584961,3825.719727 4120.420898,3838.781738
M3229.791260,1876.339722
	C3209.489746,1845.499634 3181.425781,1825.166992 3145.846436,1815.734985
	C3133.029785,1812.337280 3119.770020,1809.965820 3106.564697,1808.798096
	C3059.876709,1804.670410 3014.903076,1812.750854 2971.439697,1829.788330
	C2960.274414,1834.165161 2949.382324,1839.235352 2938.269531,1843.753174
	C2934.706299,1845.201782 2930.777100,1847.250122 2926.356689,1842.383789
	C2927.406738,1838.703491 2928.399414,1834.302979 2929.908691,1830.087646
	C2938.214844,1806.890137 2947.217529,1783.924316 2954.878662,1760.518311
	C2962.836914,1736.205444 2962.436523,1736.011475 2987.931396,1735.161621
	C3067.868652,1732.497070 3147.804688,1729.780029 3227.737793,1726.986572
	C3234.380127,1726.754395 3241.073975,1726.224731 3247.605469,1725.057617
	C3254.614990,1723.805298 3258.476807,1719.810181 3258.399170,1712.723877
	C3258.268066,1700.765381 3257.508789,1688.763428 3256.109375,1676.886475
	C3255.126953,1668.549805 3251.326904,1665.636719 3242.635254,1665.064209
	C3236.668457,1664.671265 3230.642090,1664.932617 3224.652832,1665.165405
	C3152.062500,1667.987915 3079.476074,1670.908203 3006.882080,1673.635986
	C3000.268311,1673.884644 2993.533691,1673.479492 2986.994141,1672.473511
	C2979.908936,1671.383423 2976.831055,1667.321533 2976.862793,1659.846558
	C2976.885254,1654.542847 2977.715820,1649.237427 2978.272461,1643.941895
	C2979.944336,1628.039307 2982.096680,1612.171143 2983.193604,1596.229858
	C2983.855957,1586.605957 2980.158936,1582.069336 2971.164551,1581.060913
	C2958.605225,1579.652710 2945.930664,1578.914185 2933.291992,1578.710693
	C2926.114014,1578.595093 2922.322021,1582.353027 2920.689697,1589.215454
	C2919.767578,1593.091431 2919.372070,1597.098511 2918.838623,1601.060059
	C2916.704590,1616.913330 2914.758301,1632.793335 2912.466553,1648.623535
	C2908.671143,1674.839844 2907.231445,1676.157715 2881.078857,1676.299683
	C2851.081055,1676.462646 2821.081543,1676.313599 2791.082764,1676.374023
	C2785.089600,1676.386108 2779.052734,1676.342163 2773.114502,1677.015747
	C2764.772217,1677.962158 2760.784912,1681.512573 2760.365234,1689.696289
	C2759.752686,1701.648071 2760.050293,1713.659180 2760.307373,1725.637451
	C2760.439697,1731.811768 2764.473877,1735.614258 2770.181152,1736.550781
	C2776.713135,1737.622559 2783.433350,1738.030884 2790.062012,1737.947021
	C2816.717285,1737.609863 2843.367920,1736.632080 2870.021973,1736.552124
	C2890.993164,1736.489136 2893.446289,1739.976074 2887.342285,1760.596802
	C2873.268066,1808.141357 2854.240479,1853.489746 2826.473389,1894.854004
	C2824.248779,1898.167969 2821.528076,1901.391357 2820.335938,1905.076782
	C2819.434814,1907.864014 2819.354004,1912.535645 2821.053467,1914.284912
	C2833.004150,1926.587891 2844.484131,1939.649780 2861.618652,1947.424194
	C2868.441406,1943.198486 2875.300293,1939.232910 2881.869629,1934.834717
	C2918.153320,1910.541992 2957.156982,1892.043579 2999.060303,1879.761353
	C3031.297607,1870.312256 3064.146973,1865.674927 3097.813232,1867.816040
	C3114.712891,1868.890747 3130.666992,1873.181763 3145.444336,1881.513184
	C3160.469238,1889.984253 3171.599854,1901.968994 3177.921631,1918.175171
	C3191.652832,1953.376587 3179.517578,1994.063110 3148.676758,2016.060913
	C3136.635498,2024.649780 3123.657471,2031.732544 3109.275146,2035.095825
	C3092.450928,2039.030273 3075.423828,2043.162231 3058.277832,2044.445190
	C3015.673584,2047.633057 2973.021729,2046.540283 2930.531494,2041.502686
	C2919.943359,2040.247437 2909.364014,2038.865967 2898.746338,2037.931274
	C2893.664062,2037.483887 2889.269287,2039.656494 2888.046387,2044.975830
	C2884.324951,2061.163330 2881.992432,2077.462646 2885.634766,2095.003906
	C2893.383057,2096.734375 2900.377930,2098.928711 2907.532471,2099.774902
	C2928.708008,2102.279053 2949.903320,2104.946289 2971.170410,2106.276123
	C3007.791748,2108.565918 3044.442627,2108.890137 3080.961914,2103.990479
	C3110.202148,2100.067383 3138.671875,2093.375244 3165.366211,2080.481445
	C3197.688232,2064.869385 3223.471191,2042.000366 3236.832764,2008.240723
	C3254.071533,1964.685303 3254.082764,1921.079346 3229.791260,1876.339722
M3918.000000,3666.015381
	C3961.968994,3666.023682 4005.937988,3665.997559 4049.906982,3666.076904
	C4056.557129,3666.088867 4063.263428,3666.141846 4069.842773,3666.973877
	C4079.390625,3668.181152 4082.849121,3671.581543 4083.622803,3681.052246
	C4084.380371,3690.326660 4084.182373,3699.682861 4084.306152,3709.004395
	C4084.500732,3723.656006 4084.229004,3738.326172 4084.901611,3752.954346
	C4085.320312,3762.054932 4089.680176,3766.486816 4098.613770,3766.988770
	C4110.565918,3767.660156 4122.596191,3767.767334 4134.556152,3767.254150
	C4148.423828,3766.659424 4151.334961,3763.156494 4152.217773,3748.623047
	C4152.338867,3746.629883 4152.340332,3744.627441 4152.340332,3742.629150
	C4152.342773,3709.319336 4152.552734,3676.007568 4152.263672,3642.700195
	C4152.036133,3616.518066 4148.509766,3611.703613 4123.051758,3601.968018
	C4115.887207,3599.228027 4112.098145,3594.730957 4111.740723,3587.302979
	C4111.388184,3579.988281 4111.150391,3572.659912 4111.146484,3565.337646
	C4111.103027,3489.391113 4111.126953,3413.444580 4111.100586,3337.498047
	C4111.097656,3329.505371 4111.266113,3321.487061 4110.714355,3313.524902
	C4109.190918,3291.557861 4100.141113,3280.565186 4078.341797,3276.738037
	C4043.455322,3270.613525 4008.271240,3267.676025 3972.912842,3272.480225
	C3920.104248,3279.655762 3880.954102,3306.145996 3858.810303,3355.350342
	C3852.552490,3369.255615 3847.503174,3383.844238 3843.374268,3398.534180
	C3837.610840,3419.039795 3833.177246,3439.921875 3828.274170,3460.666504
	C3818.773926,3500.861084 3809.250732,3541.050537 3799.942871,3581.289551
	C3797.383057,3592.356201 3793.244629,3600.260010 3780.425293,3603.376709
	C3759.898926,3608.368164 3753.040527,3617.638916 3752.676514,3639.083740
	C3752.066406,3675.047607 3752.465820,3711.028564 3752.463135,3747.002441
	C3752.463135,3748.997070 3752.554443,3751.006348 3752.802979,3752.983887
	C3753.940186,3762.020752 3757.741455,3766.590332 3766.670898,3766.976318
	C3780.624756,3767.578857 3794.634521,3767.457275 3808.599365,3766.997070
	C3815.668945,3766.764404 3819.730225,3762.846436 3820.881348,3756.085205
	C3821.769531,3750.869873 3821.918945,3745.490234 3821.975342,3740.178955
	C3822.145264,3724.191650 3821.826660,3708.195312 3822.223145,3692.215576
	C3822.769775,3670.199707 3826.170166,3666.666016 3848.048828,3666.223877
	C3870.025146,3665.779541 3892.015625,3666.049072 3918.000000,3666.015381
M1992.457153,2565.856445
	C1970.288818,2688.472900 1948.115356,2811.088623 1925.956055,2933.706787
	C1920.979004,2961.246338 1915.813477,2988.755127 1911.201660,3016.356201
	C1908.959106,3029.778076 1912.264526,3034.047852 1925.092651,3034.680908
	C1937.055420,3035.270996 1949.089966,3035.209229 1961.057739,3034.664307
	C1972.595459,3034.138916 1976.433350,3030.754150 1978.940186,3019.583496
	C1980.980591,3010.491943 1982.236084,3001.223389 1983.821411,2992.030518
	C1988.010986,2967.735840 1991.890869,2943.382324 1996.502319,2919.168213
	C1998.780151,2907.206787 2002.189331,2903.914551 2013.825562,2903.672852
	C2041.130981,2903.105469 2068.461426,2903.135010 2095.769775,2903.609131
	C2106.640869,2903.798096 2109.922607,2906.966309 2112.130371,2917.528564
	C2114.991211,2931.217285 2117.149170,2945.056885 2119.445557,2958.858398
	C2122.398438,2976.604492 2125.075928,2994.396729 2128.079834,3012.133789
	C2131.519775,3032.449219 2133.735352,3034.427002 2153.596680,3034.960449
	C2162.919434,3035.210693 2172.255371,3035.059570 2181.584229,3034.970215
	C2184.907471,3034.938477 2188.275635,3034.833008 2191.539307,3034.271729
	C2199.552979,3032.894287 2203.374023,3028.353271 2202.429443,3020.450195
	C2201.323730,3011.197998 2199.589600,3002.014160 2197.931641,2992.836182
	C2173.055420,2855.133789 2148.161865,2717.434814 2123.231445,2579.742432
	C2118.601807,2554.170898 2114.050049,2528.580811 2108.963623,2503.098633
	C2106.009033,2488.296875 2102.574707,2485.475098 2087.318359,2485.172852
	C2066.668701,2484.763672 2046.004028,2485.081787 2025.345825,2485.125977
	C2023.352905,2485.130127 2021.356812,2485.362793 2019.368652,2485.556396
	C2011.847778,2486.288818 2007.155151,2490.423096 2005.279053,2497.655518
	C2004.276733,2501.519287 2003.547974,2505.459473 2002.816284,2509.387451
	C1999.521729,2527.074463 1996.270386,2544.769287 1992.457153,2565.856445
z"/>
<path fill="#4C6E25" opacity="1.000000" stroke="none"
	d="
M2422.688965,4594.869141
	C2391.750000,4639.207520 2361.660889,4682.400391 2331.591064,4725.606934
	C2327.023926,4732.169434 2322.894287,4739.067871 2317.958984,4745.336426
	C2305.143799,4761.613281 2288.013184,4766.738770 2268.073242,4760.563965
	C2263.629639,4759.188477 2259.301270,4757.384277 2255.023926,4755.536133
	C2083.786377,4681.552246 1926.288818,4585.298828 1783.616943,4464.944824
	C1726.999390,4417.184082 1674.211792,4365.447266 1622.520508,4312.472656
	C1608.199951,4297.796875 1602.625244,4281.681641 1604.834839,4261.842773
	C1607.416260,4238.666016 1609.235962,4215.404297 1611.831421,4192.229492
	C1622.889526,4093.487305 1638.381592,3995.448486 1659.268188,3898.293945
	C1689.432861,3757.982178 1729.131226,3620.430420 1779.579102,3486.045166
	C1810.512329,3403.643799 1845.011353,3322.739014 1883.440796,3243.543213
	C1897.402832,3214.770264 1911.964233,3186.288086 1926.272461,3157.683350
	C1927.762451,3154.704590 1929.443848,3151.821777 1930.949829,3148.850830
	C1940.538452,3129.936523 1956.210938,3122.231445 1976.924072,3124.052490
	C1982.888306,3124.576660 1988.798828,3125.686035 1994.747314,3126.419189
	C2049.590576,3133.179688 2103.957764,3132.010010 2156.838379,3114.264404
	C2175.722656,3107.926758 2193.881348,3099.363770 2212.185303,3091.389404
	C2219.489502,3088.207520 2226.348877,3083.973389 2233.309082,3080.038330
	C2251.322998,3069.854736 2268.685303,3070.598389 2286.018066,3082.057861
	C2312.144043,3099.330811 2338.411377,3116.398438 2364.844482,3133.197754
	C2543.177246,3246.536621 2731.030762,3340.945557 2928.600830,3415.898193
	C3115.470215,3486.791504 3307.476562,3538.921387 3504.484863,3572.625488
	C3511.704590,3573.860596 3519.038574,3574.925537 3525.993408,3577.108887
	C3541.838135,3582.082764 3552.484131,3592.633057 3555.355469,3609.263184
	C3558.298584,3626.310059 3553.689453,3641.364258 3538.937988,3651.454346
	C3529.633301,3657.819336 3519.434082,3662.954834 3509.362305,3668.106934
	C3447.628418,3699.685547 3387.205078,3733.616455 3327.806396,3769.364502
	C3180.148926,3858.229248 3041.003662,3958.925049 2910.051025,4070.924805
	C2742.835449,4213.939453 2592.093994,4372.596191 2458.455811,4547.444336
	C2446.721191,4562.797363 2435.177490,4578.296875 2422.688965,4594.869141
M2448.439453,4422.372559
	C2502.611084,4355.562012 2559.500732,4291.129395 2619.023438,4229.061035
	C2677.155273,4168.443359 2737.474365,4110.071777 2799.977051,4053.923096
	C2945.162598,3923.497803 3101.282227,3807.830811 3267.788574,3706.142578
	C3300.199707,3686.348389 3333.283203,3667.657227 3365.956543,3648.288818
	C3370.213623,3645.765137 3376.237061,3644.578125 3376.666748,3637.227539
	C3368.872070,3631.590088 3359.261719,3631.215820 3350.333008,3629.306152
	C3248.577637,3607.542236 3148.391602,3579.980713 3049.282715,3548.387939
	C2892.110352,3498.286377 2740.184326,3435.324219 2592.937744,3361.118652
	C2508.996582,3318.815918 2427.075195,3272.789307 2347.314209,3222.999268
	C2321.313232,3206.768555 2295.499023,3190.234375 2269.781250,3173.558350
	C2261.115723,3167.938721 2252.680176,3166.735840 2243.527588,3171.844727
	C2241.206543,3173.140625 2238.717529,3174.138672 2236.293945,3175.247803
	C2168.277832,3206.370361 2096.845947,3219.329590 2022.276489,3215.138184
	C1994.031738,3213.550537 1995.900024,3208.698730 1980.240356,3240.011719
	C1905.539185,3389.384521 1844.111450,3544.014893 1796.705078,3704.175781
	C1757.299927,3837.305664 1727.489624,3972.554199 1708.379395,4110.084961
	C1702.420044,4152.972656 1698.263184,4196.107910 1692.656372,4239.048340
	C1690.774170,4253.463867 1694.040405,4264.948730 1704.701904,4275.073730
	C1720.642822,4290.211426 1735.533691,4306.456543 1751.513062,4321.551270
	C1836.499634,4401.831543 1927.500366,4474.439453 2026.111816,4537.475586
	C2091.919922,4579.542480 2160.263184,4616.896973 2230.536621,4650.826172
	C2239.523682,4655.165527 2248.806641,4658.929199 2258.104492,4662.572266
	C2263.595215,4664.722656 2268.821533,4663.291016 2272.534912,4658.696777
	C2277.132080,4653.009277 2281.449951,4647.072266 2285.572266,4641.027344
	C2336.286865,4566.658203 2389.920410,4494.464355 2448.439453,4422.372559
z"/>
<path fill="#4C6E25" opacity="1.000000" stroke="none"
	d="
M4898.646973,3234.893066
	C4897.222656,3245.235352 4895.740723,3253.787842 4894.879395,3262.402344
	C4892.316895,3288.038086 4878.782227,3302.787598 4853.642090,3309.904297
	C4784.346680,3329.520996 4714.692871,3347.550537 4644.179199,3362.201904
	C4545.572266,3382.690674 4446.244629,3398.609619 4346.037109,3408.892334
	C4341.398438,3409.368408 4336.750977,3410.224854 4332.115234,3410.176270
	C4314.832520,3409.994873 4301.150391,3402.936523 4292.239258,3387.846680
	C4288.858887,3382.123047 4286.182617,3375.982178 4283.213379,3370.017822
	C4228.875977,3260.879150 4140.868652,3196.500488 4021.742920,3173.812988
	C4009.355713,3171.453613 3996.576416,3171.149902 3983.978027,3169.903320
	C3978.010742,3169.312500 3972.003174,3168.999512 3966.079102,3168.121826
	C3951.082764,3165.900879 3940.204346,3157.617676 3933.829590,3144.086914
	C3929.868652,3135.679443 3926.945801,3126.750244 3923.971924,3117.915527
	C3876.480957,2976.810547 3819.269531,2839.738037 3752.380615,2706.759277
	C3670.115234,2543.210938 3574.302734,2387.936035 3464.377686,2241.529053
	C3429.178955,2194.647949 3391.827148,2149.382812 3355.439453,2103.395264
	C3350.890625,2097.645752 3346.270996,2091.949951 3341.585205,2086.311768
	C3328.300781,2070.327393 3326.273193,2052.958496 3334.608643,2034.022949
	C3338.902588,2024.269043 3342.858154,2014.352295 3346.599365,2004.371460
	C3364.177979,1957.475952 3370.475342,1908.884277 3368.163330,1859.021118
	C3367.885498,1853.031616 3367.667480,1847.031494 3367.692871,1841.037354
	C3367.765625,1824.021729 3376.125244,1811.840942 3390.654785,1803.944946
	C3398.238037,1799.823975 3406.411865,1796.758789 3414.411865,1793.440430
	C3571.176025,1728.415649 3732.381104,1677.368286 3897.993164,1640.326294
	C4004.104736,1616.592773 4111.166016,1598.465454 4219.364258,1587.309326
	C4229.968262,1586.216064 4240.576172,1585.157104 4251.190918,1584.178833
	C4266.720703,1582.747314 4279.980469,1587.544312 4291.254395,1598.409790
	C4314.766113,1621.069214 4339.046875,1642.964355 4361.916992,1666.248779
	C4403.490723,1708.575684 4443.208984,1752.613647 4480.891113,1798.496216
	C4561.551758,1896.709717 4631.348145,2002.105957 4690.802246,2114.378418
	C4754.354492,2234.390137 4804.761230,2359.723145 4841.438477,2490.468262
	C4872.653320,2601.742432 4893.708496,2714.926270 4904.634277,2830.065186
	C4912.964355,2917.852783 4914.488281,3005.760986 4910.670410,3093.705566
	C4908.648926,3140.263672 4902.925293,3186.661133 4898.646973,3234.893066
M3635.814941,1801.381470
	C3583.907227,1820.460693 3531.902100,1839.280273 3480.134277,1858.731445
	C3455.178467,1868.108276 3455.080566,1868.631836 3453.771240,1894.556152
	C3451.573730,1938.061157 3444.552246,1980.669922 3430.820312,2022.048096
	C3422.169434,2048.115723 3419.325684,2046.200195 3440.494385,2071.924072
	C3533.797852,2185.305420 3618.603271,2304.763672 3695.671875,2429.727783
	C3780.846191,2567.835205 3854.241699,2712.017090 3917.875732,2861.214844
	C3945.598633,2926.215088 3970.449219,2992.324707 3993.910400,3058.971924
	C4002.219482,3082.576416 4001.816162,3084.275879 4029.975586,3088.875488
	C4162.398438,3110.506104 4264.811035,3178.326172 4337.509766,3291.053223
	C4341.119141,3296.650146 4344.694824,3302.311279 4347.727051,3308.228760
	C4352.649902,3317.835693 4360.350098,3321.350342 4370.756836,3320.126221
	C4385.313965,3318.413818 4399.924805,3317.116699 4414.443359,3315.132324
	C4510.235352,3302.040283 4605.360840,3285.249512 4699.373535,3262.559082
	C4730.458496,3255.056152 4761.182129,3246.057373 4792.264648,3238.540771
	C4807.561523,3234.841309 4815.086914,3226.070312 4815.494141,3210.656738
	C4815.511719,3209.993408 4815.643066,3209.333008 4815.725098,3208.671631
	C4822.254395,3155.717285 4825.733398,3102.499756 4827.309082,3049.225586
	C4829.478027,2975.881592 4826.065918,2902.623535 4818.926270,2829.620605
	C4804.128906,2678.318604 4770.694824,2531.180908 4718.850098,2388.226562
	C4653.572266,2208.232666 4562.384766,2042.488037 4445.251465,1891.090454
	C4388.486328,1817.720459 4326.719238,1748.807495 4259.291504,1684.968994
	C4248.042969,1674.319092 4236.594238,1670.151733 4221.519531,1672.300049
	C4196.458984,1675.871460 4171.201660,1678.057983 4146.134766,1681.590820
	C3973.464111,1705.927734 3804.258301,1745.129517 3635.814941,1801.381470
z"/>
<path fill="#4C6E25" opacity="1.000000" stroke="none"
	d="
M2404.113281,2753.229980
	C2399.612061,2698.053711 2384.224854,2648.183350 2357.338623,2601.883545
	C2354.333252,2596.707764 2351.392822,2591.418213 2349.160889,2585.883545
	C2342.635254,2569.699707 2344.874756,2554.557861 2355.566650,2540.733887
	C2357.194580,2538.629395 2358.969971,2536.631104 2360.768555,2534.667969
	C2427.885742,2461.411621 2498.422607,2391.617188 2572.189453,2325.054688
	C2628.124023,2274.582764 2685.753174,2226.176514 2745.701660,2180.540527
	C2750.471191,2176.909668 2755.213379,2173.208984 2760.230225,2169.942627
	C2776.244873,2159.515869 2792.657227,2158.928223 2809.247070,2168.620361
	C2812.694336,2170.634277 2815.983643,2172.922852 2819.316162,2175.129639
	C2885.514648,2218.969971 2958.416260,2237.660156 3037.479492,2233.492432
	C3073.708496,2231.582520 3109.017090,2224.959229 3142.632324,2211.334473
	C3177.830566,2197.068115 3193.376953,2208.975342 3210.817139,2229.786377
	C3277.656982,2309.544922 3339.876465,2392.749512 3398.045654,2478.994141
	C3483.926758,2606.326904 3558.720459,2739.948975 3623.264404,2879.268066
	C3670.080811,2980.322266 3711.297852,3083.648438 3746.048340,3189.505127
	C3747.918213,3195.200439 3749.890381,3200.889404 3751.284668,3206.708496
	C3755.337891,3223.624756 3751.440430,3238.362549 3738.618408,3250.471191
	C3731.352295,3257.333496 3724.153320,3264.266357 3716.891113,3271.132568
	C3690.461670,3296.120850 3669.703857,3325.321289 3652.761963,3357.365234
	C3649.959961,3362.664795 3647.362793,3368.105957 3644.143799,3373.144531
	C3635.585938,3386.538818 3623.160889,3393.383057 3607.263428,3393.105713
	C3599.965820,3392.978516 3592.631592,3392.106201 3585.408203,3390.973145
	C3379.315918,3358.635742 3178.464600,3306.454346 2983.697510,3231.440918
	C2802.786133,3161.763916 2630.533447,3074.854004 2466.933838,2970.827393
	C2450.066406,2960.101807 2433.355469,2949.127686 2416.677734,2938.108887
	C2411.690674,2934.813721 2406.761963,2931.309082 2402.329590,2927.319092
	C2391.110596,2917.220459 2386.690186,2904.375732 2388.616211,2889.482178
	C2389.296875,2884.217773 2390.515625,2878.986816 2391.916992,2873.857422
	C2402.549805,2834.939209 2406.712646,2795.366699 2404.113281,2753.229980
M3487.223877,2794.852295
	C3457.073242,2737.647705 3424.937256,2681.575195 3391.341797,2626.328369
	C3326.486328,2519.675049 3254.067383,2418.356445 3175.678955,2321.291504
	C3154.565186,2295.147217 3158.506592,2297.865967 3127.069824,2305.641357
	C3016.273438,2333.045166 2910.193115,2320.233887 2808.818848,2268.072266
	C2786.764160,2256.724121 2789.653076,2254.197754 2766.973145,2272.069336
	C2665.259277,2352.218994 2569.965088,2439.443604 2479.818848,2532.347656
	C2470.075439,2542.389404 2460.739990,2552.830566 2450.907715,2562.782227
	C2443.269043,2570.513672 2442.283936,2578.764648 2447.115479,2588.243408
	C2449.532715,2592.985596 2451.481689,2597.968018 2453.597656,2602.861328
	C2483.001221,2670.857178 2495.146484,2741.714355 2488.398926,2815.589111
	C2487.006592,2830.831787 2485.165771,2846.110596 2482.187744,2861.105957
	C2479.904541,2872.604004 2482.713623,2880.601807 2492.937988,2886.162109
	C2495.857178,2887.749512 2498.510010,2889.818359 2501.364258,2891.534180
	C2547.621582,2919.336670 2593.434326,2947.915283 2640.242188,2974.757812
	C2801.528320,3067.249512 2971.267334,3140.878418 3147.679199,3199.167969
	C3280.161377,3242.941895 3415.489746,3275.487061 3552.951904,3299.239014
	C3559.516846,3300.373291 3566.120361,3301.285645 3572.699219,3302.341797
	C3580.131104,3303.534424 3585.686523,3300.746338 3589.667236,3294.492432
	C3590.740234,3292.806885 3591.935303,3291.197754 3592.984863,3289.498047
	C3608.452148,3264.453369 3626.614258,3241.538818 3646.774658,3220.094482
	C3661.529785,3204.399902 3661.820068,3203.909912 3653.988037,3182.961426
	C3633.220459,3127.415771 3612.867920,3071.684082 3590.568848,3016.749512
	C3560.229004,2942.005859 3525.436768,2869.239502 3487.223877,2794.852295
z"/>
<path fill="#4C6E25" opacity="1.000000" stroke="none"
	d="
M1699.565063,2752.808594
	C1697.680054,2794.918945 1700.818604,2834.517090 1712.176270,2873.402100
	C1723.500610,2912.172607 1740.681030,2948.004395 1763.321777,2981.329590
	C1765.942505,2985.187012 1768.797607,2988.901611 1771.191040,2992.894043
	C1779.281372,3006.390381 1780.423218,3020.573242 1774.231445,3035.029297
	C1771.089355,3042.364746 1767.240723,3049.409668 1763.504639,3056.476562
	C1712.380615,3153.176514 1666.159058,3252.163086 1625.339600,3353.644043
	C1573.040039,3483.666748 1529.851074,3616.653076 1495.608032,3752.572998
	C1478.993896,3818.518799 1464.706177,3884.937988 1452.407715,3951.805176
	C1451.324097,3957.696533 1450.306030,3963.658691 1448.505737,3969.349854
	C1438.259521,4001.739502 1399.889404,4010.568359 1376.748047,3985.663574
	C1371.379028,3979.885254 1367.202271,3972.854004 1363.188843,3965.983643
	C1317.064575,3887.027832 1276.663452,3805.273682 1242.382935,3720.456543
	C1186.429810,3582.016602 1147.545410,3438.927734 1125.281982,3291.366699
	C1112.145874,3204.302246 1103.958130,3116.769043 1104.874023,3028.564941
	C1105.358276,2981.933594 1104.510620,2935.322266 1107.436279,2888.687012
	C1114.507080,2775.981689 1131.076782,2664.785645 1157.482178,2555.023193
	C1190.356567,2418.370605 1239.101318,2287.485107 1300.723633,2161.295654
	C1303.629150,2155.345947 1306.805664,2149.321045 1310.949707,2144.219482
	C1328.067749,2123.146973 1357.296021,2122.202637 1375.661133,2142.126709
	C1380.585693,2147.469727 1384.424927,2153.843018 1388.547852,2159.889648
	C1423.832886,2211.639160 1458.125977,2264.095215 1494.527100,2315.046143
	C1558.493042,2404.580078 1627.730469,2489.985352 1701.084839,2572.029297
	C1706.857910,2578.486328 1712.603882,2584.972168 1718.198975,2591.583008
	C1729.516724,2604.955322 1731.839600,2620.153320 1726.609741,2636.580322
	C1723.578613,2646.101074 1720.021362,2655.453613 1716.750977,2664.899170
	C1707.097900,2692.780273 1701.628296,2721.496826 1699.565063,2752.808594
M1294.046509,3615.681152
	C1313.977295,3671.586670 1336.451416,3726.448975 1361.807007,3780.114258
	C1367.781860,3792.760254 1374.237061,3805.183838 1380.696777,3817.592773
	C1382.176880,3820.435547 1384.178955,3823.511230 1388.827026,3822.018555
	C1393.812988,3817.210693 1393.928711,3810.229248 1395.369385,3803.910400
	C1420.276855,3694.667236 1450.673340,3586.994629 1486.843018,3480.933350
	C1524.522339,3370.444824 1567.742310,3262.200684 1617.850464,3156.763428
	C1637.007568,3116.452881 1656.989502,3076.520264 1677.372437,3036.814453
	C1683.536133,3024.807373 1683.573486,3015.119385 1676.421509,3003.415283
	C1666.726562,2987.549561 1658.487183,2970.694580 1650.754272,2953.747803
	C1624.883789,2897.052734 1613.375366,2837.012207 1613.395264,2775.069336
	C1613.408081,2735.054199 1618.727539,2695.365479 1629.755981,2656.600342
	C1637.943604,2627.820312 1640.019897,2631.894775 1618.242432,2607.132324
	C1556.155518,2536.534180 1497.220947,2463.374512 1441.667480,2387.541748
	C1414.895386,2350.996582 1389.346558,2313.556396 1363.143555,2276.592529
	C1359.783081,2271.852051 1357.420166,2265.861572 1349.503296,2264.216797
	C1347.755737,2266.232910 1345.084595,2268.304443 1343.760864,2271.030273
	C1339.688477,2279.415527 1336.015015,2288.001953 1332.391479,2296.596680
	C1287.999023,2401.892822 1253.647095,2510.369385 1229.425659,2622.047852
	C1205.201050,2733.741699 1192.625244,2846.843994 1189.135254,2960.981201
	C1187.832153,3003.601074 1188.653687,3046.209961 1190.900146,3088.846924
	C1193.461304,3137.455322 1197.328247,3185.891113 1203.401001,3234.169678
	C1219.678589,3363.574951 1249.310181,3489.820557 1294.046509,3615.681152
z"/>
<path fill="#4C6E25" opacity="1.000000" stroke="none"
	d="
M3892.331299,3995.073486
	C3896.061768,4055.573975 3895.752930,4114.261230 3894.768555,4172.898438
	C3894.053223,4215.523438 3890.807129,4258.104492 3888.773682,4300.709473
	C3885.943359,4360.007324 3879.752197,4419.001465 3872.743896,4477.915527
	C3864.236328,4549.435547 3852.592285,4620.459961 3838.406982,4691.069336
	C3837.488281,4695.642578 3836.520752,4700.219727 3835.262207,4704.707520
	C3831.847656,4716.881348 3824.569092,4726.072754 3813.300293,4731.881836
	C3807.379639,4734.933594 3801.303223,4737.692383 3795.237549,4740.452637
	C3652.524658,4805.390625 3503.914062,4851.377441 3349.712646,4879.616699
	C3274.850830,4893.326172 3199.406250,4902.260742 3123.514893,4906.733398
	C3058.971924,4910.537598 2994.343994,4910.998047 2929.640137,4908.388184
	C2804.630615,4903.345215 2681.527588,4885.611328 2559.985596,4856.371094
	C2554.159912,4854.969727 2548.232178,4853.701660 2542.667480,4851.554199
	C2518.087646,4842.067383 2507.785645,4816.339355 2519.107178,4792.423828
	C2521.935059,4786.450195 2525.908691,4780.973145 2529.707275,4775.512207
	C2585.324219,4695.553711 2644.485107,4618.319824 2707.828369,4544.312988
	C2772.027588,4469.305664 2839.505615,4397.377441 2910.875488,4329.147949
	C3107.714355,4140.971191 3326.053223,3982.462891 3566.721436,3854.916748
	C3603.230469,3835.568115 3640.394287,3817.452393 3677.311768,3798.878174
	C3683.854248,3795.586426 3690.529297,3792.452637 3697.393799,3789.927734
	C3712.062012,3784.533691 3726.211914,3785.626709 3739.304688,3794.719727
	C3743.134277,3797.379150 3746.858398,3800.196045 3750.560303,3803.033203
	C3779.353027,3825.101318 3810.688965,3842.507324 3844.908691,3854.659180
	C3849.931885,3856.443115 3854.987061,3858.187744 3859.864014,3860.324707
	C3874.404541,3866.695557 3882.993408,3877.929932 3885.927490,3893.430176
	C3886.791992,3897.998291 3887.189453,3902.681152 3887.458740,3907.331299
	C3889.117676,3935.942383 3890.678223,3964.559570 3892.331299,3995.073486
M3154.601807,4228.532227
	C3100.079590,4272.464355 3046.745117,4317.800781 2995.862305,4365.905273
	C2925.593262,4432.337891 2857.859131,4501.255859 2794.480957,4574.375977
	C2742.059326,4634.855469 2691.895752,4697.134766 2644.510498,4761.635254
	C2629.139648,4782.558105 2630.151367,4785.606445 2655.476318,4790.380371
	C2686.252686,4796.182129 2717.161621,4801.340820 2748.109375,4806.159668
	C2811.411133,4816.016113 2875.172119,4821.509277 2939.160156,4823.606445
	C3001.124756,4825.636719 3063.077881,4825.234375 3125.030762,4821.151855
	C3198.298096,4816.323242 3271.071045,4807.829590 3343.197998,4794.300293
	C3476.723389,4769.254395 3605.866211,4729.674805 3730.585205,4675.741211
	C3757.075195,4664.286133 3757.638428,4664.416504 3762.426758,4635.495605
	C3770.808838,4584.869141 3779.233643,4534.227539 3786.217529,4483.396484
	C3797.747559,4399.478027 3804.663574,4315.070801 3807.340820,4230.430664
	C3809.195068,4171.819336 3809.081787,4113.123047 3808.692383,4054.472412
	C3808.457764,4019.172363 3805.644287,3983.895996 3804.740234,3948.589844
	C3804.403320,3935.431885 3798.732910,3928.239990 3786.923828,3922.862793
	C3768.764648,3914.594482 3751.020020,3905.204102 3733.850830,3895.022705
	C3705.790771,3878.383057 3713.629150,3875.657959 3679.871826,3892.552734
	C3638.752930,3913.131104 3598.088135,3934.684326 3557.846680,3956.936035
	C3416.330078,4035.188721 3282.741699,4125.303711 3154.601807,4228.532227
z"/>
<path fill="#4C6E25" opacity="1.000000" stroke="none"
	d="
M3254.373535,1621.963257
	C3202.760742,1576.196777 3144.758789,1546.567871 3078.100098,1534.397461
	C2999.178223,1519.988037 2924.274170,1532.051636 2853.037354,1568.413208
	C2846.510498,1571.744629 2840.174072,1575.492676 2833.489258,1578.462891
	C2819.092529,1584.859985 2804.859863,1583.807983 2791.272705,1576.033813
	C2785.504395,1572.733276 2780.041260,1568.857422 2774.638672,1564.966553
	C2675.544678,1493.604980 2572.366699,1428.668945 2465.556152,1369.552490
	C2425.916260,1347.613159 2385.404785,1327.251343 2345.362061,1306.035400
	C2338.917969,1302.621216 2332.461914,1299.008911 2326.675781,1294.613525
	C2304.933350,1278.097534 2306.636719,1239.063110 2333.274170,1225.288208
	C2338.581787,1222.543457 2344.162354,1220.250732 2349.779297,1218.191528
	C2477.259766,1171.456909 2608.164551,1138.370239 2742.648682,1119.442749
	C2826.596436,1107.627930 2910.879395,1100.965698 2995.697021,1102.011230
	C3034.340332,1102.487549 3073.025146,1102.216064 3111.613525,1103.981201
	C3187.585449,1107.456421 3262.979980,1116.582153 3337.892090,1129.784912
	C3472.963623,1153.590454 3603.985596,1191.338745 3730.822510,1243.524292
	C3805.487061,1274.244141 3878.086914,1309.242310 3948.157959,1349.402588
	C3953.342041,1352.373657 3958.624023,1355.440063 3963.101562,1359.334473
	C3988.595703,1381.507935 3980.927490,1420.751709 3949.017578,1431.663208
	C3943.369385,1433.594482 3937.423828,1434.738403 3931.549072,1435.913696
	C3721.046875,1478.023804 3517.145020,1541.601807 3319.067139,1624.136108
	C3315.375732,1625.674072 3311.615479,1627.054565 3307.970215,1628.693237
	C3289.323242,1637.075928 3271.747559,1636.056274 3254.373535,1621.963257
M3586.143799,1436.249268
	C3649.812256,1416.535400 3713.932861,1398.452759 3778.729736,1382.802490
	C3784.554932,1381.395386 3790.385010,1379.933350 3796.074707,1378.073730
	C3799.116455,1377.079468 3802.405273,1375.619995 3801.578613,1370.141113
	C3793.972412,1363.533569 3783.756104,1360.117310 3774.211182,1355.685547
	C3713.113037,1327.317017 3650.676758,1302.273193 3586.772949,1280.924683
	C3478.408936,1244.722900 3367.829834,1217.820557 3254.466309,1203.144165
	C3214.184082,1197.928833 3173.731934,1193.416870 3133.214355,1190.788452
	C3084.717285,1187.642212 3036.069092,1185.552490 2987.482178,1185.466675
	C2949.572998,1185.399780 2911.634033,1188.732056 2873.749268,1191.187866
	C2781.784912,1197.149048 2690.921631,1210.880249 2601.272949,1232.113770
	C2563.037354,1241.169922 2525.222656,1252.015991 2487.277344,1262.273560
	C2481.130859,1263.935181 2474.171387,1264.666138 2470.208496,1270.572388
	C2470.957031,1272.385376 2471.107422,1274.078979 2471.995605,1274.676514
	C2476.400879,1277.640503 2480.884766,1280.528931 2485.549072,1283.060303
	C2592.840576,1341.290894 2696.471436,1405.425537 2796.390381,1475.561279
	C2816.892822,1489.952515 2816.969971,1489.954224 2839.743896,1479.991699
	C2884.729980,1460.312134 2931.681152,1448.133545 2980.625000,1444.673462
	C3087.743164,1437.100830 3185.269287,1464.370117 3272.661865,1526.991333
	C3293.920410,1542.224121 3292.058350,1542.778687 3317.853760,1532.260254
	C3404.910400,1496.761475 3493.229736,1464.821045 3586.143799,1436.249268
z"/>
<path fill="#4C6E25" opacity="1.000000" stroke="none"
	d="
M1531.166748,1803.086426
	C1573.110229,1751.067627 1617.162964,1702.798706 1663.508667,1656.765137
	C1762.204834,1558.733276 1869.918823,1471.785522 1987.670288,1397.482666
	C1991.052612,1395.348389 1994.615601,1393.458374 1997.807739,1391.071289
	C2016.873901,1376.813721 2036.420532,1377.012329 2058.097656,1385.916016
	C2142.635498,1420.638672 2225.651367,1458.577637 2306.654053,1500.882935
	C2424.990723,1562.686279 2538.649902,1632.180420 2647.778076,1709.081787
	C2653.767578,1713.302368 2659.775635,1717.541748 2665.408447,1722.214111
	C2679.551025,1733.944946 2684.540039,1749.014771 2680.692383,1766.937988
	C2679.715576,1771.488159 2678.310303,1775.953613 2676.962402,1780.415771
	C2661.058105,1833.060913 2658.561035,1886.525513 2667.104492,1940.671753
	C2668.454834,1949.229736 2670.011719,1957.760864 2671.119873,1966.349976
	C2673.342285,1983.573975 2667.847168,1997.877563 2654.280273,2008.899170
	C2650.142334,2012.260864 2645.952148,2015.562622 2641.709229,2018.790894
	C2541.856201,2094.765625 2447.408936,2177.054199 2357.050781,2264.010742
	C2309.985596,2309.303711 2264.357666,2356.071777 2220.583740,2404.602539
	C2213.890137,2412.023682 2206.755127,2419.044434 2199.951904,2426.368896
	C2188.999268,2438.160889 2175.374756,2441.773438 2159.917969,2439.419189
	C2154.003906,2438.518311 2148.165283,2437.021240 2142.356445,2435.543213
	C2061.226562,2414.901855 1982.429321,2421.678711 1905.895508,2455.500488
	C1901.637695,2457.382080 1897.306885,2459.206055 1892.850220,2460.510742
	C1878.381470,2464.746582 1865.026123,2462.034912 1853.328247,2452.698975
	C1848.157349,2448.572021 1843.549316,2443.640869 1839.142456,2438.670166
	C1701.605591,2283.527832 1580.837280,2116.297363 1477.420044,1936.571411
	C1475.093628,1932.528442 1472.713989,1928.502075 1470.652222,1924.323486
	C1462.945679,1908.704468 1463.604248,1893.411011 1473.035767,1878.707886
	C1476.270020,1873.665771 1479.806641,1868.795654 1483.482178,1864.062256
	C1499.015625,1844.057983 1514.653809,1824.134644 1531.166748,1803.086426
M2111.114014,2342.865967
	C2115.080566,2343.376709 2119.069092,2343.758301 2123.010498,2344.418457
	C2157.118408,2350.132324 2152.429932,2351.958008 2178.008789,2325.020508
	C2222.527100,2278.137207 2267.275146,2231.519287 2314.286133,2187.072266
	C2375.338135,2129.350098 2437.630371,2073.068848 2502.717041,2019.923218
	C2523.365967,2003.062622 2543.935059,1986.062134 2565.267090,1970.095947
	C2577.660889,1960.819458 2585.216797,1950.829590 2580.421875,1934.698853
	C2579.490234,1931.563843 2579.759277,1928.082886 2579.374023,1924.773071
	C2575.968506,1895.510742 2575.769287,1866.232422 2579.581055,1837.014648
	C2581.648438,1821.166870 2584.105225,1805.350952 2587.032715,1789.641113
	C2589.088379,1778.607666 2586.797119,1770.023315 2576.948242,1763.775269
	C2570.202148,1759.495483 2563.895996,1754.528564 2557.276123,1750.041626
	C2413.460449,1652.563232 2262.519775,1567.896484 2103.462891,1497.848511
	C2086.384766,1490.327393 2068.968750,1483.558105 2052.023193,1475.758301
	C2039.792480,1470.128418 2028.975952,1471.097534 2018.343750,1479.225708
	C2013.063477,1483.262695 2007.211182,1486.546997 2001.654541,1490.227417
	C1935.425415,1534.093262 1872.795166,1582.624512 1812.625366,1634.481323
	C1723.925415,1710.926636 1644.810059,1796.352417 1572.461792,1888.214355
	C1558.322998,1906.166626 1558.463135,1906.402466 1570.708130,1926.838257
	C1611.490967,1994.901733 1654.164062,2061.731934 1700.225464,2126.380859
	C1755.184570,2203.518066 1813.020630,2278.387695 1875.220947,2349.840088
	C1892.731323,2369.954834 1891.159424,2368.231445 1914.088379,2360.616211
	C1977.181396,2339.661621 2041.746338,2334.488281 2111.114014,2342.865967
z"/>
<path fill="#4C6E25" opacity="1.000000" stroke="none"
	d="
M4121.748047,3838.116211
	C4145.584961,3825.719727 4167.059570,3812.378906 4186.875977,3796.454346
	C4236.926270,3756.232666 4272.653320,3705.722900 4295.166016,3645.719238
	C4297.038574,3640.728760 4298.654785,3635.625977 4300.803711,3630.757568
	C4307.775879,3614.962402 4319.438965,3605.019287 4336.940430,3602.859863
	C4352.146484,3600.983643 4367.367676,3599.214844 4382.599609,3597.561279
	C4509.277832,3583.807617 4634.614258,3562.246582 4758.648926,3533.079834
	C4764.482422,3531.708252 4770.359375,3530.343262 4776.293945,3529.611572
	C4806.016602,3525.946533 4828.377930,3548.427490 4824.385742,3578.141357
	C4823.506348,3584.689209 4821.555176,3591.167236 4819.463867,3597.466797
	C4787.490234,3693.777344 4748.592285,3787.190186 4701.706543,3877.217285
	C4660.405273,3956.520996 4614.157715,4032.814941 4562.274902,4105.682129
	C4504.966797,4186.168945 4441.952148,4261.829102 4373.086426,4332.722168
	C4302.822266,4405.055176 4227.668945,4471.732422 4146.892090,4532.075195
	C4139.967285,4537.248535 4133.046387,4542.673340 4125.412109,4546.595703
	C4109.978516,4554.525391 4094.461182,4553.933105 4080.124023,4543.564453
	C4070.454102,4536.570801 4064.645996,4526.830566 4064.221680,4514.820801
	C4063.870117,4504.868652 4064.119141,4494.793945 4065.256104,4484.906250
	C4073.558594,4412.727051 4079.715820,4340.344727 4082.904541,4267.792480
	C4085.361084,4211.902344 4085.493896,4155.902344 4086.133789,4099.944824
	C4086.423340,4074.638672 4085.855225,4049.302490 4084.932861,4024.007080
	C4083.476318,3984.064941 4081.394775,3944.145508 4079.570801,3904.216797
	C4079.479492,3902.219971 4079.311768,3900.227051 4079.198486,3898.231201
	C4077.418457,3866.853516 4084.121338,3855.759277 4113.139160,3842.082520
	C4115.549316,3840.946533 4117.993164,3839.880371 4121.748047,3838.116211
M4517.907227,4019.802246
	C4574.948730,3935.063965 4624.981445,3846.376221 4666.906250,3753.221924
	C4681.661621,3720.436523 4695.223633,3687.093750 4708.563965,3653.699219
	C4716.495117,3633.846924 4713.667480,3630.929688 4693.195312,3634.744873
	C4654.562988,3641.943848 4616.081543,3650.110596 4577.268066,3656.139404
	C4516.727539,3665.543213 4455.954590,3673.449463 4395.295898,3682.097168
	C4372.842773,3685.298096 4372.946289,3683.626221 4362.832031,3705.612793
	C4324.342285,3789.284912 4264.662598,3853.823730 4185.624512,3900.724121
	C4181.616699,3903.102295 4177.530762,3905.356445 4173.592285,3907.843506
	C4168.695801,3910.935547 4166.332520,3915.500977 4166.507324,3921.299316
	C4166.627930,3925.293457 4166.877930,3929.282959 4167.050293,3933.275391
	C4168.402344,3964.547363 4170.437012,3995.808350 4170.939941,4027.093750
	C4171.721191,4075.713379 4171.558594,4124.349609 4171.583496,4172.978516
	C4171.591797,4188.961426 4171.425293,4204.972168 4170.504395,4220.922363
	C4167.357422,4275.437500 4163.828125,4329.930664 4160.481445,4384.434082
	C4160.196289,4389.083496 4159.763672,4393.788574 4160.193359,4398.393555
	C4160.464355,4401.300781 4162.209961,4404.070801 4163.221191,4406.711914
	C4171.730957,4405.470703 4176.273438,4400.281738 4181.291992,4396.072754
	C4234.435059,4351.498047 4284.731934,4303.888184 4332.021973,4253.161621
	C4399.370117,4180.918457 4461.047363,4104.108887 4517.907227,4019.802246
z"/>
<path fill="#4C6E25" opacity="1.000000" stroke="none"
	d="
M3230.557617,1877.589600
	C3254.082764,1921.079346 3254.071533,1964.685303 3236.832764,2008.240723
	C3223.471191,2042.000366 3197.688232,2064.869385 3165.366211,2080.481445
	C3138.671875,2093.375244 3110.202148,2100.067383 3080.961914,2103.990479
	C3044.442627,2108.890137 3007.791748,2108.565918 2971.170410,2106.276123
	C2949.903320,2104.946289 2928.708008,2102.279053 2907.532471,2099.774902
	C2900.377930,2098.928711 2893.383057,2096.734375 2885.634766,2095.003906
	C2881.992432,2077.462646 2884.324951,2061.163330 2888.046387,2044.975830
	C2889.269287,2039.656494 2893.664062,2037.483887 2898.746338,2037.931274
	C2909.364014,2038.865967 2919.943359,2040.247437 2930.531494,2041.502686
	C2973.021729,2046.540283 3015.673584,2047.633057 3058.277832,2044.445190
	C3075.423828,2043.162231 3092.450928,2039.030273 3109.275146,2035.095825
	C3123.657471,2031.732544 3136.635498,2024.649780 3148.676758,2016.060913
	C3179.517578,1994.063110 3191.652832,1953.376587 3177.921631,1918.175171
	C3171.599854,1901.968994 3160.469238,1889.984253 3145.444336,1881.513184
	C3130.666992,1873.181763 3114.712891,1868.890747 3097.813232,1867.816040
	C3064.146973,1865.674927 3031.297607,1870.312256 2999.060303,1879.761353
	C2957.156982,1892.043579 2918.153320,1910.541992 2881.869629,1934.834717
	C2875.300293,1939.232910 2868.441406,1943.198486 2861.618652,1947.424194
	C2844.484131,1939.649780 2833.004150,1926.587891 2821.053467,1914.284912
	C2819.354004,1912.535645 2819.434814,1907.864014 2820.335938,1905.076782
	C2821.528076,1901.391357 2824.248779,1898.167969 2826.473389,1894.854004
	C2854.240479,1853.489746 2873.268066,1808.141357 2887.342285,1760.596802
	C2893.446289,1739.976074 2890.993164,1736.489136 2870.021973,1736.552124
	C2843.367920,1736.632080 2816.717285,1737.609863 2790.062012,1737.947021
	C2783.433350,1738.030884 2776.713135,1737.622559 2770.181152,1736.550781
	C2764.473877,1735.614258 2760.439697,1731.811768 2760.307373,1725.637451
	C2760.050293,1713.659180 2759.752686,1701.648071 2760.365234,1689.696289
	C2760.784912,1681.512573 2764.772217,1677.962158 2773.114502,1677.015747
	C2779.052734,1676.342163 2785.089600,1676.386108 2791.082764,1676.374023
	C2821.081543,1676.313599 2851.081055,1676.462646 2881.078857,1676.299683
	C2907.231445,1676.157715 2908.671143,1674.839844 2912.466553,1648.623535
	C2914.758301,1632.793335 2916.704590,1616.913330 2918.838623,1601.060059
	C2919.372070,1597.098511 2919.767578,1593.091431 2920.689697,1589.215454
	C2922.322021,1582.353027 2926.114014,1578.595093 2933.291992,1578.710693
	C2945.930664,1578.914185 2958.605225,1579.652710 2971.164551,1581.060913
	C2980.158936,1582.069336 2983.855957,1586.605957 2983.193604,1596.229858
	C2982.096680,1612.171143 2979.944336,1628.039307 2978.272461,1643.941895
	C2977.715820,1649.237427 2976.885254,1654.542847 2976.862793,1659.846558
	C2976.831055,1667.321533 2979.908936,1671.383423 2986.994141,1672.473511
	C2993.533691,1673.479492 3000.268311,1673.884644 3006.882080,1673.635986
	C3079.476074,1670.908203 3152.062500,1667.987915 3224.652832,1665.165405
	C3230.642090,1664.932617 3236.668457,1664.671265 3242.635254,1665.064209
	C3251.326904,1665.636719 3255.126953,1668.549805 3256.109375,1676.886475
	C3257.508789,1688.763428 3258.268066,1700.765381 3258.399170,1712.723877
	C3258.476807,1719.810181 3254.614990,1723.805298 3247.605469,1725.057617
	C3241.073975,1726.224731 3234.380127,1726.754395 3227.737793,1726.986572
	C3147.804688,1729.780029 3067.868652,1732.497070 2987.931396,1735.161621
	C2962.436523,1736.011475 2962.836914,1736.205444 2954.878662,1760.518311
	C2947.217529,1783.924316 2938.214844,1806.890137 2929.908691,1830.087646
	C2928.399414,1834.302979 2927.406738,1838.703491 2926.356689,1842.383789
	C2930.777100,1847.250122 2934.706299,1845.201782 2938.269531,1843.753174
	C2949.382324,1839.235352 2960.274414,1834.165161 2971.439697,1829.788330
	C3014.903076,1812.750854 3059.876709,1804.670410 3106.564697,1808.798096
	C3119.770020,1809.965820 3133.029785,1812.337280 3145.846436,1815.734985
	C3181.425781,1825.166992 3209.489746,1845.499634 3230.557617,1877.589600
z"/>
<path fill="#4C6E25" opacity="1.000000" stroke="none"
	d="
M3916.000000,3666.010742
	C3892.015625,3666.049072 3870.025146,3665.779541 3848.048828,3666.223877
	C3826.170166,3666.666016 3822.769775,3670.199707 3822.223145,3692.215576
	C3821.826660,3708.195312 3822.145264,3724.191650 3821.975342,3740.178955
	C3821.918945,3745.490234 3821.769531,3750.869873 3820.881348,3756.085205
	C3819.730225,3762.846436 3815.668945,3766.764404 3808.599365,3766.997070
	C3794.634521,3767.457275 3780.624756,3767.578857 3766.670898,3766.976318
	C3757.741455,3766.590332 3753.940186,3762.020752 3752.802979,3752.983887
	C3752.554443,3751.006348 3752.463135,3748.997070 3752.463135,3747.002441
	C3752.465820,3711.028564 3752.066406,3675.047607 3752.676514,3639.083740
	C3753.040527,3617.638916 3759.898926,3608.368164 3780.425293,3603.376709
	C3793.244629,3600.260010 3797.383057,3592.356201 3799.942871,3581.289551
	C3809.250732,3541.050537 3818.773926,3500.861084 3828.274170,3460.666504
	C3833.177246,3439.921875 3837.610840,3419.039795 3843.374268,3398.534180
	C3847.503174,3383.844238 3852.552490,3369.255615 3858.810303,3355.350342
	C3880.954102,3306.145996 3920.104248,3279.655762 3972.912842,3272.480225
	C4008.271240,3267.676025 4043.455322,3270.613525 4078.341797,3276.738037
	C4100.141113,3280.565186 4109.190918,3291.557861 4110.714355,3313.524902
	C4111.266113,3321.487061 4111.097656,3329.505371 4111.100586,3337.498047
	C4111.126953,3413.444580 4111.103027,3489.391113 4111.146484,3565.337646
	C4111.150391,3572.659912 4111.388184,3579.988281 4111.740723,3587.302979
	C4112.098145,3594.730957 4115.887207,3599.228027 4123.051758,3601.968018
	C4148.509766,3611.703613 4152.036133,3616.518066 4152.263672,3642.700195
	C4152.552734,3676.007568 4152.342773,3709.319336 4152.340332,3742.629150
	C4152.340332,3744.627441 4152.338867,3746.629883 4152.217773,3748.623047
	C4151.334961,3763.156494 4148.423828,3766.659424 4134.556152,3767.254150
	C4122.596191,3767.767334 4110.565918,3767.660156 4098.613770,3766.988770
	C4089.680176,3766.486816 4085.320312,3762.054932 4084.901611,3752.954346
	C4084.229004,3738.326172 4084.500732,3723.656006 4084.306152,3709.004395
	C4084.182373,3699.682861 4084.380371,3690.326660 4083.622803,3681.052246
	C4082.849121,3671.581543 4079.390625,3668.181152 4069.842773,3666.973877
	C4063.263428,3666.141846 4056.557129,3666.088867 4049.906982,3666.076904
	C4005.937988,3665.997559 3961.968994,3666.023682 3916.000000,3666.010742
M3902.202637,3452.091064
	C3892.625732,3493.643311 3883.019775,3535.189209 3873.508789,3576.756348
	C3872.323730,3581.934570 3871.302490,3587.197510 3870.829834,3592.477051
	C3870.427734,3596.969971 3873.171387,3600.507568 3877.335938,3601.354248
	C3883.144043,3602.535156 3889.188721,3602.969727 3895.134521,3602.988770
	C3935.115234,3603.117188 3975.096680,3603.062012 4015.077881,3603.031494
	C4019.072998,3603.028564 4023.093018,3603.035156 4027.058350,3602.622559
	C4037.565186,3601.530029 4041.388916,3597.934326 4042.525391,3587.854492
	C4043.046143,3583.235840 4043.017578,3578.540527 4043.019531,3573.880127
	C4043.047852,3503.913086 4043.054932,3433.945801 4043.009033,3363.978760
	C4043.005615,3358.657715 4042.823730,3353.309814 4042.265625,3348.022949
	C4041.470215,3340.488037 4037.136475,3335.668457 4029.574951,3334.788818
	C4020.341309,3333.714844 4011.009521,3332.491211 4001.757324,3332.734375
	C3954.508545,3333.975098 3930.943604,3351.554688 3916.706299,3396.688965
	C3911.302490,3413.819580 3907.510742,3431.458252 3902.202637,3452.091064
z"/>
<path fill="#4C6E25" opacity="1.000000" stroke="none"
	d="
M1992.730347,2564.158936
	C1996.270386,2544.769287 1999.521729,2527.074463 2002.816284,2509.387451
	C2003.547974,2505.459473 2004.276733,2501.519287 2005.279053,2497.655518
	C2007.155151,2490.423096 2011.847778,2486.288818 2019.368652,2485.556396
	C2021.356812,2485.362793 2023.352905,2485.130127 2025.345825,2485.125977
	C2046.004028,2485.081787 2066.668701,2484.763672 2087.318359,2485.172852
	C2102.574707,2485.475098 2106.009033,2488.296875 2108.963623,2503.098633
	C2114.050049,2528.580811 2118.601807,2554.170898 2123.231445,2579.742432
	C2148.161865,2717.434814 2173.055420,2855.133789 2197.931641,2992.836182
	C2199.589600,3002.014160 2201.323730,3011.197998 2202.429443,3020.450195
	C2203.374023,3028.353271 2199.552979,3032.894287 2191.539307,3034.271729
	C2188.275635,3034.833008 2184.907471,3034.938477 2181.584229,3034.970215
	C2172.255371,3035.059570 2162.919434,3035.210693 2153.596680,3034.960449
	C2133.735352,3034.427002 2131.519775,3032.449219 2128.079834,3012.133789
	C2125.075928,2994.396729 2122.398438,2976.604492 2119.445557,2958.858398
	C2117.149170,2945.056885 2114.991211,2931.217285 2112.130371,2917.528564
	C2109.922607,2906.966309 2106.640869,2903.798096 2095.769775,2903.609131
	C2068.461426,2903.135010 2041.130981,2903.105469 2013.825562,2903.672852
	C2002.189331,2903.914551 1998.780151,2907.206787 1996.502319,2919.168213
	C1991.890869,2943.382324 1988.010986,2967.735840 1983.821411,2992.030518
	C1982.236084,3001.223389 1980.980591,3010.491943 1978.940186,3019.583496
	C1976.433350,3030.754150 1972.595459,3034.138916 1961.057739,3034.664307
	C1949.089966,3035.209229 1937.055420,3035.270996 1925.092651,3034.680908
	C1912.264526,3034.047852 1908.959106,3029.778076 1911.201660,3016.356201
	C1915.813477,2988.755127 1920.979004,2961.246338 1925.956055,2933.706787
	C1948.115356,2811.088623 1970.288818,2688.472900 1992.730347,2564.158936
M2034.658081,2668.635742
	C2027.414917,2715.929688 2020.157959,2763.221436 2012.954224,2810.521484
	C2012.354858,2814.456787 2011.861084,2818.440186 2011.760132,2822.412354
	C2011.536743,2831.207520 2014.418945,2834.977783 2023.262451,2835.156250
	C2043.851196,2835.571289 2064.454102,2835.289795 2085.051270,2835.250244
	C2086.365723,2835.247803 2087.699463,2834.991211 2088.990723,2834.702637
	C2094.791504,2833.406006 2098.436523,2829.348145 2097.956543,2823.381836
	C2097.264893,2814.784180 2096.052734,2806.212158 2094.697998,2797.687012
	C2083.016113,2724.185303 2071.278809,2650.692871 2059.466553,2577.212158
	C2058.435791,2570.800781 2056.747803,2564.495117 2055.364990,2558.140381
	C2045.174805,2593.509521 2040.940552,2629.476074 2034.658081,2668.635742
z"/>
<path fill="none" opacity="1.000000" stroke="none"
	d="
M2447.548828,4423.475586
	C2389.920410,4494.464355 2336.286865,4566.658203 2285.572266,4641.027344
	C2281.449951,4647.072266 2277.132080,4653.009277 2272.534912,4658.696777
	C2268.821533,4663.291016 2263.595215,4664.722656 2258.104492,4662.572266
	C2248.806641,4658.929199 2239.523682,4655.165527 2230.536621,4650.826172
	C2160.263184,4616.896973 2091.919922,4579.542480 2026.111816,4537.475586
	C1927.500366,4474.439453 1836.499634,4401.831543 1751.513062,4321.551270
	C1735.533691,4306.456543 1720.642822,4290.211426 1704.701904,4275.073730
	C1694.040405,4264.948730 1690.774170,4253.463867 1692.656372,4239.048340
	C1698.263184,4196.107910 1702.420044,4152.972656 1708.379395,4110.084961
	C1727.489624,3972.554199 1757.299927,3837.305664 1796.705078,3704.175781
	C1844.111450,3544.014893 1905.539185,3389.384521 1980.240356,3240.011719
	C1995.900024,3208.698730 1994.031738,3213.550537 2022.276489,3215.138184
	C2096.845947,3219.329590 2168.277832,3206.370361 2236.293945,3175.247803
	C2238.717529,3174.138672 2241.206543,3173.140625 2243.527588,3171.844727
	C2252.680176,3166.735840 2261.115723,3167.938721 2269.781250,3173.558350
	C2295.499023,3190.234375 2321.313232,3206.768555 2347.314209,3222.999268
	C2427.075195,3272.789307 2508.996582,3318.815918 2592.937744,3361.118652
	C2740.184326,3435.324219 2892.110352,3498.286377 3049.282715,3548.387939
	C3148.391602,3579.980713 3248.577637,3607.542236 3350.333008,3629.306152
	C3359.261719,3631.215820 3368.872070,3631.590088 3376.666748,3637.227539
	C3376.237061,3644.578125 3370.213623,3645.765137 3365.956543,3648.288818
	C3333.283203,3667.657227 3300.199707,3686.348389 3267.788574,3706.142578
	C3101.282227,3807.830811 2945.162598,3923.497803 2799.977051,4053.923096
	C2737.474365,4110.071777 2677.155273,4168.443359 2619.023438,4229.061035
	C2559.500732,4291.129395 2502.611084,4355.562012 2447.548828,4423.475586
z"/>
<path fill="none" opacity="1.000000" stroke="none"
	d="
M3637.318848,1800.888916
	C3804.258301,1745.129517 3973.464111,1705.927734 4146.134766,1681.590820
	C4171.201660,1678.057983 4196.458984,1675.871460 4221.519531,1672.300049
	C4236.594238,1670.151733 4248.042969,1674.319092 4259.291504,1684.968994
	C4326.719238,1748.807495 4388.486328,1817.720459 4445.251465,1891.090454
	C4562.384766,2042.488037 4653.572266,2208.232666 4718.850098,2388.226562
	C4770.694824,2531.180908 4804.128906,2678.318604 4818.926270,2829.620605
	C4826.065918,2902.623535 4829.478027,2975.881592 4827.309082,3049.225586
	C4825.733398,3102.499756 4822.254395,3155.717285 4815.725098,3208.671631
	C4815.643066,3209.333008 4815.511719,3209.993408 4815.494141,3210.656738
	C4815.086914,3226.070312 4807.561523,3234.841309 4792.264648,3238.540771
	C4761.182129,3246.057373 4730.458496,3255.056152 4699.373535,3262.559082
	C4605.360840,3285.249512 4510.235352,3302.040283 4414.443359,3315.132324
	C4399.924805,3317.116699 4385.313965,3318.413818 4370.756836,3320.126221
	C4360.350098,3321.350342 4352.649902,3317.835693 4347.727051,3308.228760
	C4344.694824,3302.311279 4341.119141,3296.650146 4337.509766,3291.053223
	C4264.811035,3178.326172 4162.398438,3110.506104 4029.975586,3088.875488
	C4001.816162,3084.275879 4002.219482,3082.576416 3993.910400,3058.971924
	C3970.449219,2992.324707 3945.598633,2926.215088 3917.875732,2861.214844
	C3854.241699,2712.017090 3780.846191,2567.835205 3695.671875,2429.727783
	C3618.603271,2304.763672 3533.797852,2185.305420 3440.494385,2071.924072
	C3419.325684,2046.200195 3422.169434,2048.115723 3430.820312,2022.048096
	C3444.552246,1980.669922 3451.573730,1938.061157 3453.771240,1894.556152
	C3455.080566,1868.631836 3455.178467,1868.108276 3480.134277,1858.731445
	C3531.902100,1839.280273 3583.907227,1820.460693 3637.318848,1800.888916
z"/>
<path fill="none" opacity="1.000000" stroke="none"
	d="
M3487.883301,2796.174561
	C3525.436768,2869.239502 3560.229004,2942.005859 3590.568848,3016.749512
	C3612.867920,3071.684082 3633.220459,3127.415771 3653.988037,3182.961426
	C3661.820068,3203.909912 3661.529785,3204.399902 3646.774658,3220.094482
	C3626.614258,3241.538818 3608.452148,3264.453369 3592.984863,3289.498047
	C3591.935303,3291.197754 3590.740234,3292.806885 3589.667236,3294.492432
	C3585.686523,3300.746338 3580.131104,3303.534424 3572.699219,3302.341797
	C3566.120361,3301.285645 3559.516846,3300.373291 3552.951904,3299.239014
	C3415.489746,3275.487061 3280.161377,3242.941895 3147.679199,3199.167969
	C2971.267334,3140.878418 2801.528320,3067.249512 2640.242188,2974.757812
	C2593.434326,2947.915283 2547.621582,2919.336670 2501.364258,2891.534180
	C2498.510010,2889.818359 2495.857178,2887.749512 2492.937988,2886.162109
	C2482.713623,2880.601807 2479.904541,2872.604004 2482.187744,2861.105957
	C2485.165771,2846.110596 2487.006592,2830.831787 2488.398926,2815.589111
	C2495.146484,2741.714355 2483.001221,2670.857178 2453.597656,2602.861328
	C2451.481689,2597.968018 2449.532715,2592.985596 2447.115479,2588.243408
	C2442.283936,2578.764648 2443.269043,2570.513672 2450.907715,2562.782227
	C2460.739990,2552.830566 2470.075439,2542.389404 2479.818848,2532.347656
	C2569.965088,2439.443604 2665.259277,2352.218994 2766.973145,2272.069336
	C2789.653076,2254.197754 2786.764160,2256.724121 2808.818848,2268.072266
	C2910.193115,2320.233887 3016.273438,2333.045166 3127.069824,2305.641357
	C3158.506592,2297.865967 3154.565186,2295.147217 3175.678955,2321.291504
	C3254.067383,2418.356445 3326.486328,2519.675049 3391.341797,2626.328369
	C3424.937256,2681.575195 3457.073242,2737.647705 3487.883301,2796.174561
z"/>
<path fill="none" opacity="1.000000" stroke="none"
	d="
M1293.488403,3614.220215
	C1249.310181,3489.820557 1219.678589,3363.574951 1203.401001,3234.169678
	C1197.328247,3185.891113 1193.461304,3137.455322 1190.900146,3088.846924
	C1188.653687,3046.209961 1187.832153,3003.601074 1189.135254,2960.981201
	C1192.625244,2846.843994 1205.201050,2733.741699 1229.425659,2622.047852
	C1253.647095,2510.369385 1287.999023,2401.892822 1332.391479,2296.596680
	C1336.015015,2288.001953 1339.688477,2279.415527 1343.760864,2271.030273
	C1345.084595,2268.304443 1347.755737,2266.232910 1349.503296,2264.216797
	C1357.420166,2265.861572 1359.783081,2271.852051 1363.143555,2276.592529
	C1389.346558,2313.556396 1414.895386,2350.996582 1441.667480,2387.541748
	C1497.220947,2463.374512 1556.155518,2536.534180 1618.242432,2607.132324
	C1640.019897,2631.894775 1637.943604,2627.820312 1629.755981,2656.600342
	C1618.727539,2695.365479 1613.408081,2735.054199 1613.395264,2775.069336
	C1613.375366,2837.012207 1624.883789,2897.052734 1650.754272,2953.747803
	C1658.487183,2970.694580 1666.726562,2987.549561 1676.421509,3003.415283
	C1683.573486,3015.119385 1683.536133,3024.807373 1677.372437,3036.814453
	C1656.989502,3076.520264 1637.007568,3116.452881 1617.850464,3156.763428
	C1567.742310,3262.200684 1524.522339,3370.444824 1486.843018,3480.933350
	C1450.673340,3586.994629 1420.276855,3694.667236 1395.369385,3803.910400
	C1393.928711,3810.229248 1393.812988,3817.210693 1388.827026,3822.018555
	C1384.178955,3823.511230 1382.176880,3820.435547 1380.696777,3817.592773
	C1374.237061,3805.183838 1367.781860,3792.760254 1361.807007,3780.114258
	C1336.451416,3726.448975 1313.977295,3671.586670 1293.488403,3614.220215
z"/>
<path fill="none" opacity="1.000000" stroke="none"
	d="
M3155.703613,4227.643066
	C3282.741699,4125.303711 3416.330078,4035.188721 3557.846680,3956.936035
	C3598.088135,3934.684326 3638.752930,3913.131104 3679.871826,3892.552734
	C3713.629150,3875.657959 3705.790771,3878.383057 3733.850830,3895.022705
	C3751.020020,3905.204102 3768.764648,3914.594482 3786.923828,3922.862793
	C3798.732910,3928.239990 3804.403320,3935.431885 3804.740234,3948.589844
	C3805.644287,3983.895996 3808.457764,4019.172363 3808.692383,4054.472412
	C3809.081787,4113.123047 3809.195068,4171.819336 3807.340820,4230.430664
	C3804.663574,4315.070801 3797.747559,4399.478027 3786.217529,4483.396484
	C3779.233643,4534.227539 3770.808838,4584.869141 3762.426758,4635.495605
	C3757.638428,4664.416504 3757.075195,4664.286133 3730.585205,4675.741211
	C3605.866211,4729.674805 3476.723389,4769.254395 3343.197998,4794.300293
	C3271.071045,4807.829590 3198.298096,4816.323242 3125.030762,4821.151855
	C3063.077881,4825.234375 3001.124756,4825.636719 2939.160156,4823.606445
	C2875.172119,4821.509277 2811.411133,4816.016113 2748.109375,4806.159668
	C2717.161621,4801.340820 2686.252686,4796.182129 2655.476318,4790.380371
	C2630.151367,4785.606445 2629.139648,4782.558105 2644.510498,4761.635254
	C2691.895752,4697.134766 2742.059326,4634.855469 2794.480957,4574.375977
	C2857.859131,4501.255859 2925.593262,4432.337891 2995.862305,4365.905273
	C3046.745117,4317.800781 3100.079590,4272.464355 3155.703613,4227.643066
z"/>
<path fill="none" opacity="1.000000" stroke="none"
	d="
M3584.616699,1436.703613
	C3493.229736,1464.821045 3404.910400,1496.761475 3317.853760,1532.260254
	C3292.058350,1542.778687 3293.920410,1542.224121 3272.661865,1526.991333
	C3185.269287,1464.370117 3087.743164,1437.100830 2980.625000,1444.673462
	C2931.681152,1448.133545 2884.729980,1460.312134 2839.743896,1479.991699
	C2816.969971,1489.954224 2816.892822,1489.952515 2796.390381,1475.561279
	C2696.471436,1405.425537 2592.840576,1341.290894 2485.549072,1283.060303
	C2480.884766,1280.528931 2476.400879,1277.640503 2471.995605,1274.676514
	C2471.107422,1274.078979 2470.957031,1272.385376 2470.208496,1270.572388
	C2474.171387,1264.666138 2481.130859,1263.935181 2487.277344,1262.273560
	C2525.222656,1252.015991 2563.037354,1241.169922 2601.272949,1232.113770
	C2690.921631,1210.880249 2781.784912,1197.149048 2873.749268,1191.187866
	C2911.634033,1188.732056 2949.572998,1185.399780 2987.482178,1185.466675
	C3036.069092,1185.552490 3084.717285,1187.642212 3133.214355,1190.788452
	C3173.731934,1193.416870 3214.184082,1197.928833 3254.466309,1203.144165
	C3367.829834,1217.820557 3478.408936,1244.722900 3586.772949,1280.924683
	C3650.676758,1302.273193 3713.113037,1327.317017 3774.211182,1355.685547
	C3783.756104,1360.117310 3793.972412,1363.533569 3801.578613,1370.141113
	C3802.405273,1375.619995 3799.116455,1377.079468 3796.074707,1378.073730
	C3790.385010,1379.933350 3784.554932,1381.395386 3778.729736,1382.802490
	C3713.932861,1398.452759 3649.812256,1416.535400 3584.616699,1436.703613
z"/>
<path fill="none" opacity="1.000000" stroke="none"
	d="
M2109.332520,2342.603027
	C2041.746338,2334.488281 1977.181396,2339.661621 1914.088379,2360.616211
	C1891.159424,2368.231445 1892.731323,2369.954834 1875.220947,2349.840088
	C1813.020630,2278.387695 1755.184570,2203.518066 1700.225464,2126.380859
	C1654.164062,2061.731934 1611.490967,1994.901733 1570.708130,1926.838257
	C1558.463135,1906.402466 1558.322998,1906.166626 1572.461792,1888.214355
	C1644.810059,1796.352417 1723.925415,1710.926636 1812.625366,1634.481323
	C1872.795166,1582.624512 1935.425415,1534.093262 2001.654541,1490.227417
	C2007.211182,1486.546997 2013.063477,1483.262695 2018.343750,1479.225708
	C2028.975952,1471.097534 2039.792480,1470.128418 2052.023193,1475.758301
	C2068.968750,1483.558105 2086.384766,1490.327393 2103.462891,1497.848511
	C2262.519775,1567.896484 2413.460449,1652.563232 2557.276123,1750.041626
	C2563.895996,1754.528564 2570.202148,1759.495483 2576.948242,1763.775269
	C2586.797119,1770.023315 2589.088379,1778.607666 2587.032715,1789.641113
	C2584.105225,1805.350952 2581.648438,1821.166870 2579.581055,1837.014648
	C2575.769287,1866.232422 2575.968506,1895.510742 2579.374023,1924.773071
	C2579.759277,1928.082886 2579.490234,1931.563843 2580.421875,1934.698853
	C2585.216797,1950.829590 2577.660889,1960.819458 2565.267090,1970.095947
	C2543.935059,1986.062134 2523.365967,2003.062622 2502.717041,2019.923218
	C2437.630371,2073.068848 2375.338135,2129.350098 2314.286133,2187.072266
	C2267.275146,2231.519287 2222.527100,2278.137207 2178.008789,2325.020508
	C2152.429932,2351.958008 2157.118408,2350.132324 2123.010498,2344.418457
	C2119.069092,2343.758301 2115.080566,2343.376709 2109.332520,2342.603027
z"/>
<path fill="none" opacity="1.000000" stroke="none"
	d="
M4517.114746,4021.006592
	C4461.047363,4104.108887 4399.370117,4180.918457 4332.021973,4253.161621
	C4284.731934,4303.888184 4234.435059,4351.498047 4181.291992,4396.072754
	C4176.273438,4400.281738 4171.730957,4405.470703 4163.221191,4406.711914
	C4162.209961,4404.070801 4160.464355,4401.300781 4160.193359,4398.393555
	C4159.763672,4393.788574 4160.196289,4389.083496 4160.481445,4384.434082
	C4163.828125,4329.930664 4167.357422,4275.437500 4170.504395,4220.922363
	C4171.425293,4204.972168 4171.591797,4188.961426 4171.583496,4172.978516
	C4171.558594,4124.349609 4171.721191,4075.713379 4170.939941,4027.093750
	C4170.437012,3995.808350 4168.402344,3964.547363 4167.050293,3933.275391
	C4166.877930,3929.282959 4166.627930,3925.293457 4166.507324,3921.299316
	C4166.332520,3915.500977 4168.695801,3910.935547 4173.592285,3907.843506
	C4177.530762,3905.356445 4181.616699,3903.102295 4185.624512,3900.724121
	C4264.662598,3853.823730 4324.342285,3789.284912 4362.832031,3705.612793
	C4372.946289,3683.626221 4372.842773,3685.298096 4395.295898,3682.097168
	C4455.954590,3673.449463 4516.727539,3665.543213 4577.268066,3656.139404
	C4616.081543,3650.110596 4654.562988,3641.943848 4693.195312,3634.744873
	C4713.667480,3630.929688 4716.495117,3633.846924 4708.563965,3653.699219
	C4695.223633,3687.093750 4681.661621,3720.436523 4666.906250,3753.221924
	C4624.981445,3846.376221 4574.948730,3935.063965 4517.114746,4021.006592
z"/>
<path fill="none" opacity="1.000000" stroke="none"
	d="
M3902.593506,3450.478271
	C3907.510742,3431.458252 3911.302490,3413.819580 3916.706299,3396.688965
	C3930.943604,3351.554688 3954.508545,3333.975098 4001.757324,3332.734375
	C4011.009521,3332.491211 4020.341309,3333.714844 4029.574951,3334.788818
	C4037.136475,3335.668457 4041.470215,3340.488037 4042.265625,3348.022949
	C4042.823730,3353.309814 4043.005615,3358.657715 4043.009033,3363.978760
	C4043.054932,3433.945801 4043.047852,3503.913086 4043.019531,3573.880127
	C4043.017578,3578.540527 4043.046143,3583.235840 4042.525391,3587.854492
	C4041.388916,3597.934326 4037.565186,3601.530029 4027.058350,3602.622559
	C4023.093018,3603.035156 4019.072998,3603.028564 4015.077881,3603.031494
	C3975.096680,3603.062012 3935.115234,3603.117188 3895.134521,3602.988770
	C3889.188721,3602.969727 3883.144043,3602.535156 3877.335938,3601.354248
	C3873.171387,3600.507568 3870.427734,3596.969971 3870.829834,3592.477051
	C3871.302490,3587.197510 3872.323730,3581.934570 3873.508789,3576.756348
	C3883.019775,3535.189209 3892.625732,3493.643311 3902.593506,3450.478271
z"/>
<path fill="none" opacity="1.000000" stroke="none"
	d="
M2034.912842,2666.901367
	C2040.940552,2629.476074 2045.174805,2593.509521 2055.364990,2558.140381
	C2056.747803,2564.495117 2058.435791,2570.800781 2059.466553,2577.212158
	C2071.278809,2650.692871 2083.016113,2724.185303 2094.697998,2797.687012
	C2096.052734,2806.212158 2097.264893,2814.784180 2097.956543,2823.381836
	C2098.436523,2829.348145 2094.791504,2833.406006 2088.990723,2834.702637
	C2087.699463,2834.991211 2086.365723,2835.247803 2085.051270,2835.250244
	C2064.454102,2835.289795 2043.851196,2835.571289 2023.262451,2835.156250
	C2014.418945,2834.977783 2011.536743,2831.207520 2011.760132,2822.412354
	C2011.861084,2818.440186 2012.354858,2814.456787 2012.954224,2810.521484
	C2020.157959,2763.221436 2027.414917,2715.929688 2034.912842,2666.901367
z"/>
</svg>
